<?xml version="1.0" encoding="UTF-8"?>
<svg width="42px" height="48px" viewBox="0 0 42 48" version="1.1" xmlns="http://www.w3.org/2000/svg" xmlns:xlink="http://www.w3.org/1999/xlink">
    <!-- Generator: Sketch 47.1 (45422) - http://www.bohemiancoding.com/sketch -->
    <title>marker_scissors_hover</title>
    <desc>Created with Sketch.</desc>
    <defs>
        <path d="M15,0.422411765 C6.71282609,0.422411765 0.0534782609,6.87683824 0.0534782609,14.9146765 C0.0534782609,22.9499853 15,42.5801176 15,42.5801176 C15,42.5801176 29.9465217,22.9499853 29.9465217,14.9146765 C29.9465217,6.87683824 23.2871739,0.422411765 15,0.422411765 Z" id="path-1"></path>
        <path d="M8.26483714,11.5691733 C10.5073703,11.1619024 11.9842055,9.07364114 11.5766101,6.83357754 C11.1691256,4.59221997 9.07976905,3.11615892 6.83853059,3.52354068 C4.59599746,3.93081153 3.11916225,6.01907282 3.52675767,8.25913642 C3.93424212,10.500494 6.02359867,11.976555 8.26483714,11.5691733 Z M12.1373451,18.4952917 L15.7034259,15.9997595 L12.1373451,13.5042274 C11.2198022,14.2176538 10.0999968,14.726003 8.8761378,14.9816194 C4.74950695,15.6950458 0.826322402,12.9453391 0.112780728,8.87144758 C-0.601019877,4.74697994 2.15012901,0.82585195 6.22615721,0.11268432 C10.3527881,-0.600742106 14.2759726,2.14896461 14.9895143,6.22285613 C15.1932491,7.4446317 15.092103,8.66784913 14.7352064,9.78706756 L19.6767322,13.2502007 L31.4977022,4.94913652 C33.6882271,3.82847622 35.6750097,4.69496195 37,6.63016395 L23.5995468,16.0000553 L37,25.420227 C35.7255754,27.2528719 33.6882271,28.2204729 31.4977022,27.0492364 L19.6767322,18.8003012 L14.7352064,22.2128951 C15.092103,23.3335554 15.1932565,24.555331 14.9895143,25.7771066 C14.2757137,29.8512939 10.3527881,32.6008157 6.22615721,31.8872784 C2.14983308,31.173852 -0.601130847,27.2529828 0.112780728,23.1787955 C0.826581333,19.1046082 4.74950695,16.3550863 8.8761378,17.0686237 C10.0985542,17.2722517 11.2198022,17.7820501 12.1373451,18.4940347 L12.1373451,18.4952917 Z M3.52712757,23.7909957 C3.11964312,25.9803723 4.59636737,28.1191727 6.83890049,28.5265915 C9.08143361,28.883301 11.1693475,27.4059312 11.57698,25.2165546 C11.9844644,22.975197 10.5077402,20.8362487 8.26520704,20.4809589 C6.02267392,20.073688 3.93475998,21.5496382 3.52712757,23.7909957 Z" id="path-2"></path>
    </defs>
    <g id="Page-1" stroke="none" stroke-width="1" fill="none" fill-rule="evenodd">
        <g id="marker_scissors_hover">
            <g id="Group-12" transform="translate(2.000000, 2.000000)">
                <g id="np_map-marker_888711_000000-copy-3" transform="translate(4.000000, 1.000000)" fill-rule="nonzero">
                    <g id="Shape">
                        <use fill="#FFFFFF" fill-rule="evenodd" xlink:href="#path-1"></use>
                        <path stroke="#000000" stroke-width="1.6" d="M15,-0.377588235 C23.7244523,-0.377588235 30.7465217,6.43024333 30.7465217,14.9146765 C30.7465217,17.8048742 29.0307919,22.0810354 25.9906688,27.4573163 C25.1319061,28.9759882 24.1795935,30.5583003 23.1495089,32.1880587 C21.5060898,34.7882105 19.746439,37.3830603 17.9868446,39.8516983 C17.3709738,40.7157395 16.7989614,41.5024791 16.2853754,42.1967233 C16.1053939,42.4400146 15.9454951,42.6544654 15.8075008,42.8381742 C15.7243378,42.9488872 15.6672095,43.0244125 15.6364981,43.0647518 L15,43.9007015 L14.3635019,43.0647518 C14.3327905,43.0244125 14.2756622,42.9488872 14.1924992,42.8381742 C14.0545049,42.6544654 13.8946061,42.4400146 13.7146246,42.1967233 C13.2010386,41.5024791 12.6290262,40.7157395 12.0131554,39.8516983 C10.253561,37.3830603 8.49391019,34.7882105 6.85049107,32.1880587 C5.82040653,30.5583003 4.86809388,28.9759882 4.00933118,27.4573163 C0.969208107,22.0810354 -0.746521739,17.8048742 -0.746521739,14.9146765 C-0.746521739,6.43024333 6.27554774,-0.377588235 15,-0.377588235 Z"></path>
                    </g>
                </g>
                <rect id="Rectangle-14" fill="#FFFFFF" x="2" y="4" width="15" height="25"></rect>
                <g id="np_scissors_1221603_000000-copy-3" transform="translate(18.500000, 16.000000) rotate(-360.000000) translate(-18.500000, -16.000000) " fill-rule="nonzero">
                    <g id="Shape">
                        <use fill="#000000" fill-rule="evenodd" xlink:href="#path-2"></use>
                        <path stroke="#FFFFFF" stroke-width="1.6" d="M8.12176827,10.7820702 C6.32374838,11.1088897 4.64387089,9.93127953 4.31385577,8.11604 C3.98693513,6.31934899 5.16501955,4.64055644 6.98148181,4.31066516 C8.77961935,3.98382426 10.4594968,5.16143443 10.789512,6.97667396 C11.1164326,8.77336498 9.93834817,10.4521575 8.12188591,10.7820488 L8.12176827,10.7820702 Z M12.1435724,17.5145026 L14.3081191,15.9997595 L12.1431161,14.4846972 C11.2285105,15.0920439 10.1685057,15.5288811 9.01242291,15.7699254 C4.45799056,16.5573116 0.115626499,13.5247422 -0.675501268,9.00787153 C-1.46338614,4.45533172 1.57091505,0.115041905 6.0898721,-0.675621692 C10.6443044,-1.46300794 14.9866685,1.56956148 15.7786184,6.0912706 C15.9665884,7.21850639 15.9222825,8.36428523 15.6579214,9.45682513 L19.6762706,12.2729753 L31.0379521,4.29443825 L31.1333405,4.23692833 C33.5965994,2.97673878 36.0363519,3.80665397 37.660102,6.17820664 L38.107636,6.83184819 L24.9931169,16.0018081 L38.1112249,25.2234985 L37.6568012,25.8769678 C36.0454829,28.1940717 33.5497282,29.0535952 31.0398918,27.7052925 L19.6743575,19.7741704 L15.658802,22.5472938 C15.9223817,23.639529 15.9662047,24.7837734 15.7775118,25.9151643 C14.9863848,30.4307103 10.6442897,33.4630905 6.08823987,32.6753005 C1.57721254,31.8857936 -1.46549471,27.5507365 -0.675216772,23.0407377 C0.115910195,18.5251918 4.45800534,15.4928116 9.00758913,16.2794972 C10.1354854,16.4673803 11.2068298,16.8938305 12.1435724,17.5145026 Z M4.31421652,23.9341424 L4.31362137,23.9373771 C3.98616828,25.6967525 5.18118477,27.4123256 6.9645729,27.7365241 C8.77230291,28.0240715 10.4610267,26.839686 10.7898819,25.0734582 C11.1189715,23.2633092 9.92868182,21.5544852 8.12225582,21.2680834 C6.32325783,20.9413638 4.64443241,22.1184579 4.31421652,23.9341424 Z"></path>
                    </g>
                </g>
            </g>
        </g>
    </g>
</svg>